<?xml version="1.0" encoding="utf-8"?>
<svg xmlns="http://www.w3.org/2000/svg" viewBox="0 0 500 500" xmlns:bx="https://boxy-svg.com" width="500px" height="500px"><defs><bx:export><bx:file format="svg"/></bx:export></defs><path d="M 251.379 216.451 L 254.216 220.365 L 257.052 216.451 C 261.778 209.909 269.379 206.034 277.453 206.034 C 291.35 206.034 302.617 217.304 302.617 231.2 L 302.617 231.69 C 302.617 252.903 276.166 277.539 262.364 288.072 C 260.019 289.849 257.146 290.737 254.216 290.737 C 251.286 290.737 248.392 289.867 246.067 288.072 C 232.266 277.539 205.814 252.903 205.814 231.69 L 205.814 231.2 C 205.814 217.304 217.082 206.034 230.979 206.034 C 239.051 206.034 246.652 209.909 251.379 216.451 Z" style="stroke-width: 1;"/></svg>