<?xml version="1.0" encoding="utf-8"?>
<svg xmlns="http://www.w3.org/2000/svg" viewBox="0 0 500 500" xmlns:bx="https://boxy-svg.com" width="500px" height="500px"><defs><bx:export><bx:file format="svg"/></bx:export></defs><path d="M 240.78 235.509 L 242.674 238.123 L 244.568 235.509 C 247.724 231.14 252.8 228.552 258.192 228.552 C 267.473 228.552 274.998 236.078 274.998 245.358 L 274.998 245.686 C 274.998 259.853 257.333 276.305 248.116 283.339 C 246.55 284.526 244.631 285.119 242.674 285.119 C 240.717 285.119 238.785 284.538 237.232 283.339 C 228.015 276.305 210.35 259.853 210.35 245.686 L 210.35 245.358 C 210.35 236.078 217.875 228.552 227.156 228.552 C 232.547 228.552 237.623 231.14 240.78 235.509 Z" style="stroke-width: 1;"/></svg>