<?xml version="1.0" encoding="utf-8"?>
<svg xmlns="http://www.w3.org/2000/svg" viewBox="0 0 500 500" xmlns:bx="https://boxy-svg.com" width="500px" height="500px"><defs><bx:export><bx:file format="svg"/></bx:export></defs><path d="M 247.325 224.838 L 249.627 228.014 L 251.928 224.838 C 255.763 219.529 261.931 216.385 268.483 216.385 C 279.76 216.385 288.903 225.53 288.903 236.806 L 288.903 237.204 C 288.903 254.418 267.439 274.409 256.239 282.956 C 254.336 284.398 252.005 285.119 249.627 285.119 C 247.249 285.119 244.901 284.413 243.014 282.956 C 231.815 274.409 210.35 254.418 210.35 237.204 L 210.35 236.806 C 210.35 225.53 219.494 216.385 230.771 216.385 C 237.321 216.385 243.489 219.529 247.325 224.838 Z" style="stroke-width: 1;"/></svg>